#define chemical4b_width 50
#define chemical4b_height 50
static unsigned char chemical4b_bits[] = {
  0x00, 0x00, 0x00, 0x00, 0x00, 0x00, 0x00, 0x00, 0x00, 0x00, 0x00, 0x00,
  0x00, 0x00, 0x00, 0x00, 0x00, 0x00, 0x00, 0x00, 0x00, 0x00, 0x00, 0x00,
  0x00, 0x00, 0x00, 0x00, 0x00, 0x00, 0x00, 0x00, 0x00, 0x00, 0x00, 0x00,
  0x00, 0x00, 0x00, 0x00, 0x00, 0x00, 0x00, 0x00, 0x00, 0x00, 0x00, 0x00,
  0x00, 0x00, 0x00, 0x00, 0x00, 0x00, 0x00, 0x00, 0x00, 0x00, 0x00, 0x00,
  0x00, 0x00, 0x00, 0x00, 0x00, 0x00, 0x00, 0x00, 0x00, 0x00, 0x00, 0x00,
  0xe0, 0x00, 0x1e, 0x00, 0x00, 0x00, 0x00, 0xf0, 0x01, 0x3f, 0x00, 0x00,
  0x00, 0x00, 0xf0, 0x7d, 0x3f, 0x00, 0x00, 0x00, 0x00, 0xf0, 0x01, 0x3f,
  0x00, 0x00, 0x00, 0x00, 0xe0, 0x00, 0x3f, 0x00, 0x00, 0x00, 0x00, 0x08,
  0x00, 0x1e, 0x00, 0x00, 0x00, 0x00, 0x44, 0x80, 0x00, 0x00, 0x00, 0x00,
  0x00, 0x42, 0x40, 0x08, 0x00, 0x00, 0x00, 0xf0, 0x40, 0x1c, 0x08, 0x00,
  0x00, 0x00, 0xf8, 0x41, 0x3e, 0x08, 0x00, 0x00, 0x00, 0xf8, 0xfd, 0x3e,
  0x08, 0x00, 0x00, 0x00, 0xf8, 0x41, 0x3e, 0x08, 0x00, 0x00, 0x00, 0xf8,
  0x41, 0x1c, 0x08, 0x00, 0x00, 0x00, 0xf0, 0x00, 0x00, 0x00, 0x00, 0x00,
  0x00, 0x00, 0xf0, 0x00, 0x1c, 0x00, 0x00, 0x00, 0x40, 0xf8, 0x09, 0x3e,
  0x00, 0x00, 0x00, 0x40, 0xf8, 0xed, 0x3e, 0x00, 0x00, 0x00, 0x40, 0xf8,
  0x09, 0x3e, 0x00, 0x00, 0x00, 0x40, 0xf8, 0x09, 0x1c, 0x00, 0x00, 0x00,
  0x40, 0xf0, 0x08, 0x01, 0x00, 0x00, 0x00, 0x40, 0x04, 0x88, 0x00, 0x00,
  0x00, 0x00, 0x00, 0x02, 0x40, 0x00, 0x00, 0x00, 0x00, 0xe0, 0x00, 0x1e,
  0x00, 0x00, 0x00, 0x00, 0xf0, 0x01, 0x3f, 0x00, 0x00, 0x00, 0x00, 0xf0,
  0x7d, 0x3f, 0x00, 0x00, 0x00, 0x00, 0xf0, 0x01, 0x3f, 0x00, 0x00, 0x00,
  0x00, 0xe0, 0x00, 0x3f, 0x00, 0x00, 0x00, 0x00, 0x00, 0x00, 0x1e, 0x00,
  0x00, 0x00, 0x00, 0x00, 0x00, 0x00, 0x00, 0x00, 0x00, 0x00, 0x00, 0x00,
  0x00, 0x00, 0x00, 0x00, 0x00, 0x00, 0x00, 0x00, 0x00, 0x00, 0x00, 0x00,
  0x00, 0x00, 0x00, 0x00, 0x00, 0x00, 0x00, 0x00, 0x00, 0x00, 0x00, 0x00,
  0x00, 0x00, 0x00, 0x00, 0x00, 0x00, 0x00, 0x00, 0x00, 0x00, 0x00, 0x00,
  0x00, 0x00, 0x00, 0x00, 0x00, 0x00, 0x00, 0x00, 0x00, 0x00, 0x00, 0x00,
  0x00, 0x00, 0x00, 0x00, 0x00, 0x00, 0x00, 0x00, 0x00, 0x00, 0x00, 0x00,
  0x00, 0x00, 0x00, 0x00, 0x00, 0x00, 0x00, 0x00, 0x00, 0x00, 0x00, 0x00,
  0x00, 0x00, };
